<svg width="127" height="80" viewBox="0 0 127 80" fill="none" xmlns="http://www.w3.org/2000/svg">
<g filter="url(#filter0_d_802_3)">
<path d="M2.5 76.6714V3.43002H30.7707C38.3912 3.43002 44.957 4.80932 50.4683 7.56794C56.0476 10.3266 60.3341 14.43 63.3279 19.8783C66.3897 25.3266 67.9206 32.1542 67.9206 40.3611C67.9206 48.3611 66.4577 55.0507 63.532 60.43C60.6062 65.8093 56.3878 69.8783 50.8765 72.6369C45.3653 75.3266 38.7314 76.6714 30.9748 76.6714H2.5ZM20.9729 59.3955H31.1789C35.7376 59.3955 39.3097 58.6024 41.8952 57.0162C44.5488 55.3611 46.4199 53.0852 47.5085 50.1886C48.6652 47.2921 49.2435 43.9473 49.2435 40.1542C49.2435 36.499 48.6992 33.2231 47.6106 30.3266C46.5219 27.361 44.6168 25.0507 41.8952 23.3955C39.1736 21.6714 35.3634 20.8093 30.4645 20.8093H20.9729V59.3955Z" fill="url(#paint0_linear_802_3)"/>
<path d="M87.146 77.5C79.7977 77.5 73.3679 75.9483 67.8566 72.8448C62.3454 69.7414 58.0588 65.3966 54.997 59.8104C52.0033 54.1552 50.5064 47.6035 50.5064 40.1552C50.5064 32.5 52.0713 25.8793 55.2012 20.2931C58.331 14.6379 62.6856 10.2586 68.2649 7.15517C73.8441 4.05172 80.308 2.5 87.6563 2.5C94.9366 2.5 101.332 4.01724 106.844 7.05172C112.355 10.0862 116.675 14.3966 119.805 19.9828C122.935 25.5 124.5 32.0517 124.5 39.6379C124.5 47.0862 122.935 53.6724 119.805 59.3966C116.743 65.0517 112.389 69.5 106.742 72.7414C101.162 75.9138 94.6304 77.5 87.146 77.5ZM87.5542 59.8104C91.9088 59.8104 95.4129 58.8104 98.0664 56.8104C100.72 54.7414 102.625 52.1897 103.782 49.1552C105.007 46.1207 105.619 43.1207 105.619 40.1552C105.619 37.9483 105.279 35.7069 104.598 33.431C103.986 31.0862 102.965 28.9138 101.536 26.9138C100.176 24.9138 98.3386 23.2931 96.0252 22.0517C93.7119 20.8103 90.8542 20.1897 87.4522 20.1897C83.1656 20.1897 79.6956 21.1897 77.042 23.1897C74.3885 25.1207 72.4493 27.6035 71.2246 30.6379C69.9999 33.6724 69.3875 36.8103 69.3875 40.0517C69.3875 43.2931 69.9999 46.431 71.2246 49.4655C72.5174 52.5 74.4905 54.9828 77.1441 56.9138C79.8657 58.8448 83.3357 59.8104 87.5542 59.8104Z" fill="url(#paint1_linear_802_3)"/>
<path d="M87.6562 2.25C94.972 2.25 101.41 3.77524 106.964 6.83301C112.516 9.89021 116.87 14.2338 120.022 19.8594C123.177 25.4209 124.75 32.0168 124.75 39.6377C124.75 47.1213 123.177 53.7491 120.024 59.5146C116.94 65.2111 112.553 69.6938 106.866 72.958L106.865 72.959C101.242 76.1561 94.666 77.75 87.1455 77.75C79.7615 77.7499 73.2886 76.1901 67.7344 73.0625C64.5865 71.2899 61.8354 69.114 59.4805 66.5371C57.1051 69.107 54.2744 71.2155 50.9883 72.8604L50.9863 72.8613C45.4331 75.5715 38.7594 76.9219 30.9746 76.9219H2.25V3.17969H30.7705C38.42 3.17969 45.0253 4.56475 50.5781 7.34375C53.996 9.03366 56.9334 11.2262 59.3896 13.918C61.8671 11.1322 64.7853 8.80452 68.1436 6.93652C73.7652 3.80956 80.272 2.25001 87.6562 2.25ZM87.4521 20.4395C83.2041 20.4395 79.7915 21.4307 77.1924 23.3896L77.1895 23.3916C74.5736 25.2952 72.6632 27.7405 71.4561 30.7314C70.2432 33.7365 69.6377 36.8428 69.6377 40.0518C69.6377 43.259 70.2426 46.3637 71.4541 49.3672C72.7288 52.3592 74.6727 54.806 77.2881 56.71H77.2891C79.9584 58.6038 83.3744 59.5605 87.5547 59.5605C91.7368 59.5605 95.1014 58.6297 97.6699 56.791L97.916 56.6104C100.533 54.5689 102.409 52.0552 103.548 49.0664L103.55 49.0615C104.764 46.0537 105.369 43.0855 105.369 40.1553C105.369 37.9745 105.032 35.7573 104.358 33.5029L104.356 33.4941C103.752 31.1794 102.744 29.035 101.333 27.0596L101.33 27.0547C99.9939 25.0909 98.188 23.4964 95.9072 22.2725C93.6394 21.0555 90.8247 20.4395 87.4521 20.4395ZM21.2227 59.1455H31.1787C35.7128 59.1455 39.2335 58.3556 41.7646 56.8027C44.3711 55.1764 46.2056 52.9444 47.2744 50.1006L47.2764 50.0957C48.419 47.2343 48.9932 43.9222 48.9932 40.1543C48.9932 36.5238 48.4533 33.2779 47.377 30.4141L47.376 30.4131C46.3071 27.5013 44.4391 25.2354 41.7656 23.6094L41.7617 23.6064C39.0959 21.9177 35.3391 21.0596 30.4648 21.0596H21.2227V59.1455Z" stroke="white" stroke-width="0.5"/>
</g>
<defs>
<filter id="filter0_d_802_3" x="0" y="0" width="127" height="80" filterUnits="userSpaceOnUse" color-interpolation-filters="sRGB">
<feFlood flood-opacity="0" result="BackgroundImageFix"/>
<feColorMatrix in="SourceAlpha" type="matrix" values="0 0 0 0 0 0 0 0 0 0 0 0 0 0 0 0 0 0 127 0" result="hardAlpha"/>
<feOffset/>
<feGaussianBlur stdDeviation="1"/>
<feComposite in2="hardAlpha" operator="out"/>
<feColorMatrix type="matrix" values="0 0 0 0 1 0 0 0 0 0.945176 0 0 0 0 0.960996 0 0 0 0.5 0"/>
<feBlend mode="normal" in2="BackgroundImageFix" result="effect1_dropShadow_802_3"/>
<feBlend mode="normal" in="SourceGraphic" in2="effect1_dropShadow_802_3" result="shape"/>
</filter>
<linearGradient id="paint0_linear_802_3" x1="32.3776" y1="15" x2="124.736" y2="77.1495" gradientUnits="userSpaceOnUse">
<stop stop-color="#E4225A"/>
<stop offset="1" stop-color="#7E1332"/>
</linearGradient>
<linearGradient id="paint1_linear_802_3" x1="32.3776" y1="15" x2="124.736" y2="77.1495" gradientUnits="userSpaceOnUse">
<stop stop-color="#E4225A"/>
<stop offset="1" stop-color="#7E1332"/>
</linearGradient>
</defs>
</svg>
